<svg id="Capa_1" enable-background="new 0 0 512 512" height="512" viewBox="0 0 512 512" width="512" xmlns="http://www.w3.org/2000/svg"><g><path d="m406 62h-105v-47c0-8.284-6.716-15-15-15h-60c-8.284 0-15 6.716-15 15v47h-105c-8.284 0-15 6.716-15 15v420c0 8.284 6.716 15 15 15h300c8.284 0 15-6.716 15-15v-420c0-8.284-6.716-15-15-15zm-165-32h30v62h-30zm150 452h-270v-390h90v15c0 8.284 6.716 15 15 15h60c8.284 0 15-6.716 15-15v-15h90z"/><path d="m316 212c0-33.084-26.916-60-60-60s-60 26.916-60 60 26.916 60 60 60 60-26.916 60-60zm-60 30c-16.542 0-30-13.458-30-30s13.458-30 30-30 30 13.458 30 30-13.458 30-30 30z"/><path d="m256 272h-30c-41.355 0-75 33.645-75 75v30c0 8.284 6.716 15 15 15h180c8.284 0 15-6.716 15-15v-30c0-41.355-33.645-75-75-75zm75 75v15h-150v-15c0-24.813 20.187-45 45-45h60c24.813 0 45 20.187 45 45z"/><path d="m346 422h-180c-8.284 0-15 6.716-15 15s6.716 15 15 15h180c8.284 0 15-6.716 15-15s-6.716-15-15-15z"/></g></svg>