<?xml version="1.0" encoding="iso-8859-1"?>
<!-- Generator: Adobe Illustrator 16.0.0, SVG Export Plug-In . SVG Version: 6.00 Build 0)  -->
<!DOCTYPE svg PUBLIC "-//W3C//DTD SVG 1.1//EN" "http://www.w3.org/Graphics/SVG/1.1/DTD/svg11.dtd">
<svg version="1.1" id="Capa_1" xmlns="http://www.w3.org/2000/svg" xmlns:xlink="http://www.w3.org/1999/xlink" x="0px" y="0px"
	 width="602.733px" height="602.734px" viewBox="0 0 602.733 602.734" style="enable-background:new 0 0 602.733 602.734;"
	 xml:space="preserve">
<g>
	<g>
		<path d="M0,500.115c0,35.811,29.137,64.947,64.948,64.947h472.837c35.812,0,64.948-29.137,64.948-64.947V203.939
			c0-35.812-29.137-64.948-64.948-64.948h-77.939V89.629c0-28.649-23.309-51.958-51.957-51.958H194.85
			c-28.654,0-51.958,23.309-51.958,51.958v49.362H64.948C29.137,138.991,0,168.128,0,203.939V500.115z M506.611,185.756h31.179
			c10.026,0,18.188,8.162,18.188,18.188v296.17c0,10.025-8.161,18.188-18.188,18.188h-31.179V185.756L506.611,185.756z
			 M184.46,89.629c0-5.728,4.662-10.395,10.39-10.395h213.039c5.732,0,10.39,4.662,10.39,10.395v49.362H184.46V89.629z
			 M137.695,185.756h327.348v332.546H137.695V185.756z M46.765,203.939c0-10.026,8.162-18.188,18.188-18.188h31.179v332.545H64.953
			c-10.026,0-18.188-8.16-18.188-18.188V203.939z"/>
		<polygon points="332.277,245.513 280.851,245.513 280.851,326.316 200.047,326.316 200.047,377.738 280.851,377.738 
			280.851,458.546 332.277,458.546 332.277,377.738 413.081,377.738 413.081,326.316 332.277,326.316 		"/>
	</g>
</g>
<g>
</g>
<g>
</g>
<g>
</g>
<g>
</g>
<g>
</g>
<g>
</g>
<g>
</g>
<g>
</g>
<g>
</g>
<g>
</g>
<g>
</g>
<g>
</g>
<g>
</g>
<g>
</g>
<g>
</g>
</svg>
