<svg width="16" height="19" viewBox="0 0 16 19" fill="none" xmlns="http://www.w3.org/2000/svg">
<path d="M1.00078 15.7746C0.930821 17.6872 5.57734 18.0515 7.90934 17.9945C13.8559 17.7896 15.1094 16.543 14.9928 15.9454V15.2623C15.0628 13.0765 12.2235 12.0747 10.7952 11.847C9.32603 11.6421 9.71664 10.6802 10.0956 10.2248C10.3055 10.0199 10.5911 9.3425 10.7077 9.02944C10.7777 8.82452 11.0867 8.43176 11.2324 8.261C11.4423 8.12438 11.6114 7.57794 11.6697 7.3218C11.9495 6.29721 11.728 6.21183 11.5822 6.29721C11.4423 6.36552 11.4073 6.26875 11.4073 6.21183C11.5473 5.8703 11.5822 4.9311 11.5822 4.50419C11.6522 1.90858 10.0956 1.65813 9.30854 1.85735C8.95874 1.10599 8.05509 0.975074 7.64699 1.00353C4.23643 0.918152 4.32388 4.50419 4.32388 4.76034C4.32388 4.96526 4.49878 5.5857 4.58623 5.8703C4.72615 6.34844 4.64453 6.41106 4.58623 6.3826C4.02655 6.31429 4.17813 7.26488 4.32388 7.74871C4.39384 8.15854 4.64453 8.37484 4.76113 8.43176C5.04097 8.56837 5.22753 8.88713 5.28583 9.02944C5.42575 9.43927 5.75223 9.9971 5.89798 10.2248C6.66755 11.2494 5.86883 11.7332 5.37328 11.847C1.87528 12.5984 1.00078 14.0954 1.00078 14.75V15.7746Z" stroke="#125A78" stroke-width="1.5"/>
</svg>
